<svg id="Layer_1" data-name="Layer 1" xmlns="http://www.w3.org/2000/svg" viewBox="0 0 870.78 903.44"><defs><style>.cls-1{fill:#2d2d2d;}</style></defs><path class="cls-1" d="M941.47,362.33Q907.54,280,847.22,218.46a438.06,438.06,0,0,0-140.1-96.13Q629.23,88.61,540,87.8V317.72h.63a186.68,186.68,0,0,1,78.53,17,202.69,202.69,0,0,1,65.34,47.75,234.79,234.79,0,0,1,44.61,71q16.32,40.23,16.33,86.7t-15.7,87.33q-15.74,40.85-44,70.36a209.4,209.4,0,0,1-66,46.5,193.89,193.89,0,0,1-80.42,17,186.61,186.61,0,0,1-78.53-17,202.19,202.19,0,0,1-65.34-47.75,233.92,233.92,0,0,1-44.61-71,224.81,224.81,0,0,1-16.33-85.44V540H104.64c0,1.72,0,3.43,0,5.15q0,91.74,34.56,172.78T234,860.54a437.25,437.25,0,0,0,140.11,96.13q79.77,34.55,171.51,34.55,89.22,0,166.5-35.18a442.32,442.32,0,0,0,137-97.38q59.67-62.2,93-143.87t33.3-174.66Q975.39,444.66,941.47,362.33Z" transform="translate(-104.61 -87.78)"/><rect class="cls-1" x="758.39" y="791.22" width="112" height="112" rx="8.94"/><path class="cls-1" d="M540,87.8V317.72q-42.37.12-79.16,17a202.48,202.48,0,0,0-65.34,47.75,234.4,234.4,0,0,0-44.61,71Q334.59,493.6,334.56,540H104.64q.87-92.56,33.27-173.27Q171.2,283.79,230.26,221a426.26,426.26,0,0,1,137.59-98Q446.38,87.8,535.6,87.78Z" transform="translate(-104.61 -87.78)"/></svg>